<svg xmlns="http://www.w3.org/2000/svg" version="1.1" xmlns:xlink="http://www.w3.org/1999/xlink" xmlns:svgjs="http://svgjs.dev/svgjs" width="1313" height="413" style="background-color: rgba(0, 0, 0, 0);"><line x1="0" y1="206.5" x2="1313" y2="206.5" stroke-width="6.199999999999999" stroke="#aaaaaa"/><rect width="1313" height="413" style="opacity: 0;"/><circle r="451.4225" cx="-401.4225" cy="206.5" fill="#a40000" style="cursor: pointer;"/><circle r="12" cx="180" cy="206.5" style="cursor: pointer; opacity: 1;"/><circle r="14" cx="289" cy="206.5" fill="#008f00" style="cursor: pointer; opacity: 1;"/><circle r="23" cx="553" cy="206.5" fill="#000092" style="cursor: pointer; opacity: 1;"/><polygon points="392.14884637581804,328.41404306844674 389.5244719072307,332.1880127560171 385.9727879563793,333.7440075761925 383.1888977496087,333.54825323974586 381.6237672039748,333.5207920045417 380.14884637581804,330.00460060105814 380.69477937108087,325.9368741500361 384.8308083309032,322.18444464432406 390.11108473993613,323.9617532985247 390.63140752124696,327.826978953369" style="cursor: pointer; opacity: 1;"/><polygon points="412.61296158323216,172.6387836729007 411.1822882458963,176.97292504092863 407.9857200242769,177.30054392927713 403.6347533779445,178.01481443614296 401.71269704330285,174.4861201663606 400.61296158323216,173.16714673204712 402.1224992315143,168.7339966156406 402.6644886260573,166.9817672278659 408.04922134687246,165.75693889493277 409.01934362840274,167.68711257116863 411.6087579784787,171.44929816593876" style="cursor: pointer; opacity: 1;"/><polygon points="399.47198501243315,415.77814977880155 399.3115093257406,416.94038319001214 400.0588068875412,420.52822948500915 394.3187183471337,422.00587643788975 391.6500245265473,420.47790097838583 390.3413985408545,418.50534115400217 388.18401780377144,416.1167746379242 389.83948085570466,410.41295196212735 392.9685804005704,408.405123333143 397.20007347546914,408.7735783706921 400.18401780377144,413.0489023146536" style="cursor: pointer; opacity: 1;"/><polygon points="430.0676800357068,224.7334689594889 428.80567444711795,225.83800513154 427.4089523494326,229.48958479080602 423.3538767130945,230.55633796369634 422.42867512005125,229.08309288181857 418.0676800357068,227.01417488358612 418.3993575640413,222.65999241797212 421.1132980220416,221.85806153931065 422.23600735903847,218.87441747454693 425.87395429339887,219.95731741640665 429.725944678856,223.24402972496517" style="cursor: pointer; opacity: 1;"/><polygon points="436.4661667761791,371.87394731528633 435.3570908287293,374.71757745844144 430.823249059815,377.963962132364 427.28441972748516,377.64552971118815 424.4661667761791,374.52831374558286 424.5595586745302,371.29671561863853 424.708187566194,368.47839828602815 428.6504710762104,367.62627418392566 429.43727431461815,365.679174416785 434.112415211046,366.8356879524749 435.8831202279265,367.48752590829645 434.4856178355603,369.8527037266799" style="cursor: pointer; opacity: 1;"/><polygon points="417.6602110900455,368.1929120623904 414.32635871982075,371.16225163957125 411.91770702521393,373.05018125386994 410.6025833324995,373.94541574047025 407.1374133934172,370.55229926066477 405.6602110900455,366.30374845347575 406.5205177731813,362.7963374592379 412.4108873481658,363.21602757498835 414.42843293577926,364.58883100100866 415.52520635150137,367.8192182796229" style="cursor: pointer; opacity: 1;"/><polygon points="395.8602627075888,84.3923456202063 394.3285020954448,86.9132651428685 393.36690552006525,90.13964253353502 387.8443644577308,88.89150326992963 383.97217850883595,85.31968961606792 385.8301948133274,81.18637735479633 386.6789690392151,79.69522573100203 391.7734312658267,78.9051125602131 393.8818995857708,81.61914966413454 395.97217850883595,83.67784690375251" style="cursor: pointer; opacity: 1;"/><polygon points="405.5941099758201,64.55168160803522 403.0376951956566,68.45207097531656 400.42600713052707,71.05828128759876 397.36443375624987,68.42639969056344 393.5941099758201,65.6501452492542 395.4207830486979,64.25329881048415 394.859391808205,62.85572061270423 396.30362991835426,59.28715564490388 398.96260368986907,59.111584881513444 401.13327695174206,59.90470699292443 404.62586999195145,62.08789310708363" style="cursor: pointer; opacity: 1;"/><polygon points="412.3437402835777,215.14586040277032 410.9999995958209,217.13398684278343 407.1810916715789,219.88133842348356 403.3041832700345,220.78194717107237 401.73828585458637,218.13977865293577 400.3437402835777,216.56415318387806 401.28182641413366,214.14780807571483 402.3424032044941,210.00994846089185 406.7731506341441,209.35663659272282 408.06455799687404,209.9390700539351 410.2361584096123,212.98747036409742" style="cursor: pointer; opacity: 1;"/><polygon points="423.8352897580658,166.98551644913562 424.4708676074855,169.1299320543566 422.1860983286236,169.35853961192308 419.7451995171542,171.5098259214165 416.553937998532,172.20952982063073 412.4708676074855,170.01176069682765 412.9968038665933,167.11827649087132 412.8904817268694,162.7822309957782 417.90973014142764,162.26854837104926 421.41498870661553,162.49461502657766" style="cursor: pointer; opacity: 1;"/><polygon points="443.84284454154295,97.96592537321864 441.88678992302226,100.76191875226354 439.17254758784105,104.08523933573552 434.0980854899673,101.84194857125021 431.8659331760593,100.88727637544666 431.84284454154295,96.3465664907904 434.6152806494397,93.57417111636188 440.3712992599874,91.60524795704453 441.46961243835824,94.02289407937361" style="cursor: pointer; opacity: 1;"/><polygon points="412.4398585088257,180.53564385442118 413.77390669708245,182.4586816376358 411.19211183225684,183.5069181506243 407.90043190101596,187.04078055306576 406.14384730518725,185.28441527174408 402.86663798933404,185.52773251645962 401.77390669708245,181.79711257694774 403.64516775492,177.48606230806288 406.96720866461726,175.53956756912527 408.45888728108304,176.1253496225661 413.3936846464124,178.2596888672473 413.1143135518801,179.6247227779388" style="cursor: pointer; opacity: 1;"/><polygon points="436.1644752230492,422.0448126229825 434.7211404187641,424.9581687945012 432.6613792363783,428.585242735324 428.6282371961017,426.89773220799526 426.60000314941436,427.43585954903506 424.1644752230492,422.8353173973813 424.84865210516466,418.1426712615507 426.2956915007205,417.09431893071684 430.22475342748805,417.3885704554918 434.9867864907121,417.4709536394551" style="cursor: pointer; opacity: 1;"/><polygon points="401.8185468548081,194.10165299468125 400.39434376252626,196.5379854529971 397.30118499133226,199.35938567163765 392.79605460397505,197.8616479716911 391.96853097612086,197.21535259205683 389.8185468548081,193.45145573589357 393.53152686477705,190.67037019182607 396.8624789161917,189.57071737320595 400.45180000577363,190.0042410122122" style="cursor: pointer; opacity: 1;"/><polygon points="392.4399928039282,247.31593590299087 391.9888923427822,250.11481635313947 388.0537896151222,252.62291374183266 383.94003422852006,251.18563467012342 380.4399928039282,247.90729712261455 380.6410684799832,245.9838619878669 380.8550857110936,244.8081677863291 384.5663063099675,242.64145792064684 388.02015776877016,241.190178772693 389.8936954372765,241.8832465129085 391.6653033391709,244.46214791565367" style="cursor: pointer; opacity: 1;"/><polygon points="439.40913419395156,-14.388180272680579 436.5701816005445,-11.196007919555289 435.41931851049003,-8.89699120598997 433.4608876532818,-8.416457665371372 431.5511190249135,-9.070550344392947 429.33779166709405,-12.804163033841407 427.40913419395156,-16.954372556757725 429.85815565008744,-16.77661769762713 433.4093588258082,-19.75313384204619 436.927277653745,-17.756387625349234 437.45989480313995,-16.068522222918542 438.552576793225,-15.08460685942687" style="cursor: pointer; opacity: 1;"/><polygon points="428.74319720335774,60.79991267156478 430.2991603517678,63.120729490725346 427.3318838134302,64.8307134507093 423.2072285692923,68.03858882424827 419.348484632156,65.62489766385616 418.2991603517678,62.424852465147154 419.5606132277884,57.419494547512635 423.00896349429763,56.17808816273444 426.4170057398437,56.950886705168834 428.5860945485986,60.51825613502028" style="cursor: pointer; opacity: 1;"/><polygon points="398.7898979562965,115.80563539544637 396.59566227972226,120.72488294212614 393.3172015924218,121.25267144638752 391.77898528601725,121.68138471239368 390.38027439934746,121.26085212483542 386.8421333203089,118.76077275633297 386.7898979562965,114.3296222196208 389.0479578869098,111.96743773142354 390.4425528978399,109.79310323901784 396.06504088212705,109.66974510377553 397.0526428775222,112.38802333955478 397.98627511738744,114.79661604233972" style="cursor: pointer; opacity: 1;"/><polygon points="423.76650492786376,46.78693493404903 420.7607545552246,50.76154951072583 417.32599352106445,53.43965375038472 415.07137437659435,52.95898637435616 411.76650492786376,50.34838829874843 412.21958194251465,47.057363221289876 412.29605653936045,43.1085813702127 416.9863872186373,40.84402278405246 420.46105421385874,41.62905903503043 423.39021515343387,45.71865931788412" style="cursor: pointer; opacity: 1;"/><polygon points="413.7813870604792,326.06828895449314 412.10753460388787,330.26200436789327 408.3251179982644,330.71402262955456 403.1563822991775,330.7698672378298 401.7813870604792,325.0748100876249 403.01207060500303,322.70377561013385 406.7814219237803,320.5342124735924 408.0331228544242,319.67138398377136 409.6294958292662,321.2900321892026 412.7621093260348,323.8748479503293" style="cursor: pointer; opacity: 1;"/><polygon points="401.87524915852975,222.68528346088613 403.1023335533041,226.25320236165928 400.5784752084937,228.06479350285258 396.3350784597527,227.51195138170382 392.6696537537841,227.69618446824532 391.1023335533041,224.6690169239203 392.67645626139375,219.64847684388232 394.89254570567755,217.98148415083332 397.6407480086985,217.22518261825184 399.75971115713025,216.97297156927655 400.586427053963,218.97902217685436 402.0175438800526,221.18320579961468" style="cursor: pointer; opacity: 1;"/><polygon points="418.3781933376012,51.4909499804884 415.9305756759,52.696737648016686 413.3524267129598,55.98643278017201 411.79946413785194,57.3272433820866 409.24862231881343,55.27890404678177 406.3781933376012,52.886481864805845 408.01396611218735,47.81501000783588 412.7057242559888,47.29388053011652 414.22982399767835,46.237285506260626 415.44090698585285,47.82226629835853 418.2857326316181,50.16419184503879" style="cursor: pointer; opacity: 1;"/><polygon points="412.8298280896643,407.33699482694874 413.1700577123696,409.76196953478035 408.8596372865605,413.470935789808 403.3181556239685,412.6680848662962 401.83742610871195,410.4612119803102 401.1700577123696,404.4165442895472 404.4508219299144,401.83035815376735 407.09469668425146,400.52052650708873 411.3374123579387,402.2130715250237" style="cursor: pointer; opacity: 1;"/><polygon points="440.6507286341469,266.3622081343446 439.33320489321295,270.58499158892636 436.5156175496673,270.3989787686525 434.78922774552166,272.8853891601079 432.73715642325266,272.1057312705008 431.33013079823115,269.6642499426723 428.6507286341469,266.3494812249191 428.7734111795687,263.8690655135301 430.42008420502526,260.88067444146446 431.6828136399372,259.98061652974894 435.804016072662,260.3345639166978 437.09622536505765,260.76779347451225 440.14838223667834,265.47686813996114" style="cursor: pointer; opacity: 1;"/><polygon points="406.56111381008486,52.28923245688859 405.47238410989996,54.886575150400866 405.12915088398205,57.0635680873024 402.40650297209663,57.78775927230805 401.21208757888155,57.489460050654415 399.6380213451795,58.70079035333385 397.8709122882328,57.74268335327908 394.7698670778625,54.79977004537884 394.56111381008486,53.48185719443976 394.6729013618234,49.16287705740339 396.3768188436956,46.795790151685715 399.08386743042246,47.846150066027 400.6919273995406,47.68238894386558 404.4815626039997,47.98179355142511" style="cursor: pointer; opacity: 1;"/><polygon points="443.0266429333232,83.9566983514618 443.0749988760162,89.39467689013377 437.2172682227753,90.38879474236126 431.18105867337323,87.93954697122555 431.0749988760162,84.40407816808151 433.6927548384534,78.78667320650925 438.0428367836232,77.04280507379524 439.87485275822667,77.96177509668537 442.97813323810254,78.83694316095408" style="cursor: pointer; opacity: 1;"/><circle r="19" cx="782" cy="206.5" fill="#001e34" style="cursor: pointer; opacity: 1;"/><polygon points="1074.3686935260682,395.2229130627125 1071.386095423914,397.40336531563713 1069.662025444969,400.04337821832837 1066.6173949638282,399.85452483734093 1063.9271314203365,397.45445559091735 1062.9686935260681,394.1997237855288 1064.2692813255358,390.3414333093382 1068.0232018285842,390.1636388589279 1069.8693840778813,391.346242126823 1072.3780745782383,391.13735472338016" style="cursor: pointer; opacity: 1;"/><polygon points="1153.3704510124376,96.09038665762655 1151.2155905363431,98.12657785570175 1149.330464678147,102.08959313834384 1145.3285908916557,102.22514883474085 1141.9704510124375,100.08809169978018 1142.2612184351965,96.86124184734305 1142.4595958906511,95.78625616438909 1142.5596401428486,93.87186780491864 1145.4412688409982,91.27204198052603 1149.3131702081153,91.68030008318676 1151.7642739655928,94.20338440416567" style="cursor: pointer; opacity: 1;"/><polygon points="1148.6757537603798,405.5042738994086 1147.7016930425923,406.51467958508636 1145.727605713548,409.6874497229749 1143.422665855454,412.1768253832269 1140.842017431324,410.914082889047 1137.9523878982918,406.5894160241612 1138.592009870254,401.1774303256132 1143.5523449080952,399.7323656733413 1145.5768492458005,401.5101785520328 1146.8316895236771,401.69498579026117 1149.352387898292,402.53210352069624 1148.478128025341,404.3265520121555" style="cursor: pointer; opacity: 1;"/><polygon points="1158.100015988956,406.2073792205314 1157.753257848598,408.8969546648995 1155.9264856101186,410.78989423481 1154.8759079498036,412.7979153554428 1149.1801850645043,411.6512435253191 1146.7614393280303,408.07448955992123 1146.700015988956,403.31825558829166 1149.3509095753652,400.8393618989831 1152.9754354346746,400.3690406590319 1157.5918007579583,403.4570842332633" style="cursor: pointer; opacity: 1;"/><polygon points="1065.9138969116423,104.30294837081811 1064.299559961104,107.05742888956118 1062.4464875665476,110.18221085772704 1059.6999555375214,108.42410179414578 1055.9487819842673,106.94888836836351 1055.1143783138943,105.00666917315033 1057.2917365609724,102.04472548273463 1059.4927555043103,100.40728052763758 1062.8936072394392,98.38484561930272 1066.5143783138944,101.92332276044884" style="cursor: pointer; opacity: 1;"/><polygon points="1058.1834981295906,393.7176584246919 1057.8480326057202,394.8232910113781 1055.4468414927117,398.28943580523816 1054.1694330583864,398.64364308161186 1051.7176676340077,399.40831503756425 1049.755738646209,397.8832197486052 1047.926535831176,397.56080433574687 1046.7834981295905,393.7299182894526 1048.9581837261014,388.38531605286187 1050.9748797814998,386.48639143244145 1054.8502830622442,387.641019413628 1055.6129860313636,389.1386381910064 1057.7890870500091,392.58314621135645" style="cursor: pointer; opacity: 1;"/><polygon points="1071.5305697809122,80.17153336786065 1070.2385560428486,83.90386509013022 1064.9475546298204,85.13590271015669 1061.2031828314953,84.18635003721029 1060.130569780912,79.54375131975803 1061.9982661099932,75.67208466662052 1066.5324195291653,73.67910886212975 1070.9912559605746,76.64265440025869" style="cursor: pointer; opacity: 1;"/><polygon points="1172.6814575237672,166.96893280416703 1169.8197152154112,170.94693538095848 1166.3106683700894,172.50768554004577 1164.239233908757,172.0014765807538 1163.2695044373856,170.0566051226463 1161.2814575237671,168.34737955923384 1162.1331494072526,166.2354835530477 1162.5924528168741,162.47528888967656 1168.3604428778754,160.58939244022457 1171.640273706274,164.6152552056763" style="cursor: pointer; opacity: 1;"/><polygon points="1024.6447966061428,229.28993469423347 1021.8753579368076,233.10475542328535 1018.0121988914458,234.86317022877887 1015.7465616358223,234.11832214741207 1014.9123824390418,231.9807998004775 1013.2447966061428,229.9401173883535 1015.185261203183,225.0966454243983 1018.4061661983957,224.2480446182463 1020.8482009610398,224.764842389719 1023.7435950679888,227.08103163572628" style="cursor: pointer; opacity: 1;"/><polygon points="1090.3038588573158,86.62960679157769 1090.2614259250204,89.76426606013983 1086.2992378949095,91.85817691327267 1081.9412847811807,91.2666142030921 1079.2404425474383,88.10161286715423 1081.5328148815502,83.07850182386392 1085.0897092472985,82.13348071648207 1086.3693242128331,82.30104954844248 1090.6404425474384,83.57289216000707" style="cursor: pointer; opacity: 1;"/><polygon points="1084.9024214762264,111.87498977337313 1083.2819216789744,113.31889972104412 1082.0327910731457,115.4698408560501 1079.7990276311264,116.0076776347781 1077.8237707138012,117.8769099695724 1073.9110408785098,115.57244068709178 1073.5024214762263,112.3685044450848 1074.7510825928757,107.87555934619138 1078.140907066605,106.6242393374287 1080.7491656014893,105.96688780104466 1081.8450034382658,108.13321578620669 1084.114843149798,109.05183585048935" style="cursor: pointer; opacity: 1;"/><polygon points="1100.3188943851117,302.7712648658979 1100.8620075681206,305.01735781164035 1098.8428383557034,307.36077516310263 1097.7100279673032,308.3745357809816 1095.4678155901468,308.172163205433 1092.878157379161,306.20245867619474 1090.5903151336427,304.8910925966036 1091.1480339274215,302.7655510117591 1091.7420701818542,299.89127046641204 1095.82486353455,298.1347837017446 1098.3988179209273,297.81002200043037 1100.3877345740382,299.1523032500193 1101.9903151336428,301.51609451092423" style="cursor: pointer; opacity: 1;"/><polygon points="1006.9844210720393,108.83139790835128 1007.9187662518816,112.53186155444396 1003.8363045101635,113.18767653419985 1000.9424465337713,112.7493223244437 998.9169695674007,112.7862979156879 997.0169985102606,109.00925303100372 999.5512320580816,103.98676472037025 1003.1782774910818,103.00652964327053 1006.4127376755109,104.99815869393741 1008.4169985102606,106.44253546556294" style="cursor: pointer; opacity: 1;"/><polygon points="1068.172950559905,360.7976106652658 1066.7342861459363,364.02551831664164 1065.8068282547172,365.2907070230619 1062.5164743222372,365.71940614516956 1057.8509628120203,363.6095327464873 1056.772950559905,359.7596209368767 1058.9175719358286,357.88555534579615 1060.5981342446328,357.3007841830006 1062.5600570380825,356.34500580250824 1066.6172869824252,357.05451107868294" style="cursor: pointer; opacity: 1;"/><polygon points="1143.2429636435568,209.99456599030674 1141.6776884542705,213.36034363626945 1138.1364938908282,215.06884515707608 1134.265926805054,212.72930064548365 1133.165643431852,209.6309466333216 1133.8589564437132,207.40415244165575 1137.1031123844598,204.63832842143097 1140.6809086137844,205.20991470574722 1144.565643431852,208.5852992141779" style="cursor: pointer; opacity: 1;"/><polygon points="1177.548881358743,388.55390624498585 1175.145732549375,392.96284370215466 1171.7382380916886,396.3709320134044 1169.6245082074586,392.9172619216505 1166.7072842904395,392.81172651958434 1167.1047873841885,387.2881133949712 1167.6404733383781,383.9684402504119 1170.4559867165074,383.6804554434008 1172.7896053938564,381.4536800642092 1178.1072842904396,385.3148621050386" style="cursor: pointer; opacity: 1;"/><polygon points="1153.460399030436,150.2188860040502 1150.58995076605,155.39284688147254 1146.6562385431848,154.49367782815844 1142.640841462683,152.37547179009263 1142.060399030436,150.10942311673932 1143.051743811912,146.18206328950592 1147.9643211768955,146.07923588831562 1150.868169956148,144.74626310131168 1151.517839170494,150.08959577751332" style="cursor: pointer; opacity: 1;"/><polygon points="1195.6206549423293,81.61451952143486 1195.0629008906963,83.2194598850967 1194.4169138301388,85.34055293097808 1190.830954598116,86.52059001021603 1188.349155450258,85.65950399646746 1185.732077099682,83.40247487116424 1186.2563150504009,81.58582777703151 1186.4401727280251,78.4264898668275 1187.7401048291158,76.67605494940884 1191.4558875159003,75.78916390702413 1193.578172538882,78.37102406152644 1195.3965344592673,79.07744628940623 1197.1320770996822,79.92569837303428" style="cursor: pointer; opacity: 1;"/><polygon points="1016.9744156622252,24.522298436469736 1016.5345554576019,26.252316156338548 1015.621217365285,26.90666693018278 1012.6552683074381,29.583016593858673 1010.9940529401146,29.87280236931353 1006.4847489780087,27.705838412131428 1005.5744156622252,24.815104577208746 1008.3098652678719,22.437856190215946 1009.4789346085861,18.646620263097475 1013.1858832692096,19.993873900576062 1014.7732652979067,20.11952458644337 1016.3888400207367,24.070838308208597" style="cursor: pointer; opacity: 1;"/><polygon points="1176.9584527116867,5.259803661404063 1175.9817620161484,6.259977215881395 1173.6240096838555,9.255803661414504 1170.2058365856317,9.181418228368193 1167.4221968290565,7.378928396412327 1167.0894771241951,5.326798393770142 1165.5584527116866,3.9757958534186186 1168.1546201775373,2.4396869907058267 1171.3340854850014,0.6939532260081247 1172.9776347534432,1.5137275817695213 1175.941940508824,3.596920061230162" style="cursor: pointer; opacity: 1;"/><polygon points="1051.6808908370542,78.76175341917839 1051.0595113068491,82.50689302411975 1046.4600925533123,83.44085098139666 1042.7326748285511,81.0083625889804 1040.2808908370541,79.11990147282582 1042.9194003702653,77.27520856309272 1044.7365795697065,73.67377250783291 1046.2573649906674,73.7084273838558 1048.4640782966403,73.41573541916271 1051.1768924692785,74.39171469595226" style="cursor: pointer; opacity: 1;"/><polygon points="1139.9039313420349,143.13056642815928 1140.0809676147715,145.12711884814334 1137.9172944171357,148.46588429905418 1133.1180353770367,148.4284901132463 1130.6937545392686,145.22126009901905 1130.388757290614,144.36760593280832 1128.6809676147714,141.10579748924687 1131.9338544300858,137.30563097943815 1135.733852803344,137.61340763992555 1137.3023400494951,139.94675275461603 1139.8272524898996,140.67977856662924" style="cursor: pointer; opacity: 1;"/><polygon points="1092.4261859876622,170.37480396805762 1089.5476687151859,173.7775402281918 1087.586895440757,174.73774548802172 1085.8784152481066,176.57786297269797 1082.101887638319,174.84379010833834 1081.026185987662,172.55656585677966 1082.188785439266,167.9005358695348 1083.7241614184998,165.88177636699095 1087.22826645186,164.17557992527114 1087.9808521680177,166.6033714781348 1092.3309731013578,168.63440983807496" style="cursor: pointer; opacity: 1;"/><polygon points="1116.2382263657664,135.00621416746145 1116.8727182346784,136.49182411804483 1115.4964087441142,138.85970724147273 1111.7908055056057,141.56756214657932 1109.4058235757902,140.35466579823964 1108.2568725370093,137.92538130170715 1105.4727182346783,137.54280795652522 1107.6946574635474,133.3053031595681 1107.9736546679678,131.0139892235083 1111.8788745569352,128.2862724552319 1113.402531485603,128.96419805401058 1116.389171099554,131.60598256840487" style="cursor: pointer; opacity: 1;"/><polygon points="1021.3603728327034,129.70315409596515 1021.2742670072723,131.1372109958995 1017.9581183090119,134.293579790477 1015.6693600174067,134.90722015778397 1011.4640119699512,133.603985512924 1010.5848892038623,132.64283571685297 1010.350399580115,129.57297176714476 1009.9603728327035,126.83818413156133 1013.8573367587406,124.53069738218642 1016.586798021165,124.40536868413604 1018.8137772741625,126.4862237175771 1019.6702606291152,129.65865243960283" style="cursor: pointer; opacity: 1;"/><polygon points="1178.4172243852188,210.3629003612184 1176.1558329637737,215.27175985458692 1172.9885159149103,215.336533425966 1169.4620621324605,214.11564408833476 1167.0172243852187,211.72640546270597 1167.8729002867778,208.54037283225227 1170.784049196915,206.43985897751006 1172.2987418175294,204.58552653821977 1175.9517954782702,207.274941425722" style="cursor: pointer; opacity: 1;"/><polygon points="1153.113176143841,227.46570220572136 1153.7851115753867,229.67959461910917 1151.0446923475188,233.58904137033585 1149.1359960643806,234.31390628558455 1143.9987772351428,231.22578169110582 1142.3851115753866,229.09981216005 1142.7140217035048,227.63448828132536 1143.197633766635,225.4291534929791 1144.6839439869325,222.18413798337295 1150.815982816346,220.3052202815443 1152.7437320973088,221.57006107266855 1153.0305207670417,226.25737034421152" style="cursor: pointer; opacity: 1;"/><polygon points="1097.8549439411909,241.1569188063624 1097.7533854756325,244.85311438879108 1096.7597243395546,246.43560552030024 1093.6944258680167,246.60457286436267 1089.6854255472524,246.85726665155525 1087.3800903066808,244.12039302377443 1088.1724841733626,241.05965092864926 1086.4549439411908,239.6109990427133 1090.007703870574,237.62751561406898 1090.6231786423934,235.808873323758 1095.187923642704,237.1489972230981 1096.3860136174621,238.1723961603863 1097.7463808081693,240.73773863508322" style="cursor: pointer; opacity: 1;"/><polygon points="1097.8875245374493,122.03042858079833 1095.9317599139079,124.7810811037646 1091.881194939563,128.5185640435025 1088.9337762803937,126.4870279054799 1087.440205862992,124.54066604866182 1086.4875245374492,122.91918566996223 1086.6673327339972,118.29853966957442 1089.9619768883208,115.65985475884754 1095.7616592026045,117.42787117523824 1095.4743464707121,119.67622524032492" style="cursor: pointer; opacity: 1;"/><polygon points="1024.1401869550543,178.02752296255204 1023.0608403048067,179.3655552933051 1023.8985595564633,180.9880227102687 1020.1090192282115,183.2444161017828 1016.3927115440697,182.32817055440583 1015.1901911246015,181.87649756473465 1013.2349233372053,177.1954328354145 1014.6973399866647,173.42179373882945 1018.9806916037471,171.6948212000721 1022.0336209542852,174.80540994920088 1024.6349233372052,177.23317912542672" style="cursor: pointer; opacity: 1;"/></svg>