<svg xmlns="http://www.w3.org/2000/svg" version="1.1" xmlns:xlink="http://www.w3.org/1999/xlink" xmlns:svgjs="http://svgjs.dev/svgjs" width="1313" height="413" style="background-color: rgba(0, 0, 0, 0);"><line x1="0" y1="206.5" x2="1313" y2="206.5" stroke-width="4.6000000000000005" stroke="#1faaaa"/><rect width="1313" height="413" style="opacity: 0;"/><circle r="451.4225" cx="-401.4225" cy="206.5" style="cursor: pointer;" fill="#c19800"/><circle r="11" cx="273.30735301971436" cy="206.5" style="cursor: pointer; opacity: 1;"/><circle r="68" cx="981.3073530197144" cy="206.5" style="cursor: pointer; opacity: 1;" fill="#007600"/><circle r="11" cx="363.30735301971436" cy="206.5" style="cursor: pointer; opacity: 1;"/><circle r="6.1211219751755515" cx="361.6553154685304" cy="176.2756944600325" fill="#e30000" style="cursor: pointer; opacity: 1;"/><circle r="12" cx="1225.3073530197144" cy="206.5" style="cursor: pointer; opacity: 1;"/><path d="M869.8078557332228 206.50000678322323A111.49950422669036 111.49950422669036 0 1 0 1092.8068641866034 206.50000678322323A111.49950422669036 111.49950422669036 0 1 0 869.8078557332228 206.50000678322323 " stroke-width="5" stroke="#0000e7" style="fill: none; cursor: pointer; opacity: 1;"/><circle r="55" cx="510.30735301971436" cy="206.5" style="cursor: pointer; opacity: 1;" fill="#940000"/><polygon points="817.7089822976541,24.80953173585914 817.3783649116006,27.899355750990466 815.4550961295064,31.3927289754027 808.3742711407253,31.547976329487554 805.2322674667655,29.189121934848327 804.7946243706918,26.966474527092828 801.7089822976541,24.592110795168132 804.5546891009143,23.356355570749212 807.4315146665137,19.38133136189642 809.3738740534976,19.01401111804636 815.1028353128835,17.903835695739936 817.3980934997264,24.33306069276911" fill="#850000" style="cursor: pointer; opacity: 1;"/><polygon points="802.1609161033596,183.98459416854422 803.0241480847811,187.48761481702795 798.751492161543,190.32697356058338 792.8800401090373,188.9370587408631 788.3836023005283,188.73635837016897 787.0241480847811,182.85975399654419 788.7976063772302,179.90981137085456 789.6222384964906,178.4400517579968 795.6873072109229,177.34146730240641 801.5270586672741,179.03486068384282 802.4232443867015,181.6499718475456" fill="#850000" style="cursor: pointer; opacity: 1;"/><polygon points="845.5800272459074,84.70853631259004 843.0296475448246,89.86466240339742 842.4792588077373,92.3966872520525 838.9455795283724,90.86436539371151 831.8285609318743,90.2183918006104 831.1752978813048,84.76554649068305 830.6363999240831,81.38972002089882 836.5556134321976,76.11744986384798 839.3876419205485,74.92321859612483 846.6363999240831,80.53883886349526" fill="#850000" style="cursor: pointer; opacity: 1;"/><polygon points="814.0425921507938,407.9115206842005 810.2607911027377,414.7414770525067 803.1210372313345,414.7230392200525 799.9484479657269,413.2050337911201 798.0425921507938,407.9343377009 800.5837924160413,402.8478231952627 803.2479510161616,401.6679699378455 806.8312497337937,401.69792829089596 811.902447242143,403.22650924079886" fill="#850000" style="cursor: pointer; opacity: 1;"/><polygon points="832.6185557797802,172.7756170958317 833.1221798736012,176.6078495128827 828.047148305866,178.71809968202928 826.9483910779123,179.82763173664043 819.2293462994816,179.72869795824946 817.1221798736012,173.61576521013092 818.2173835993497,167.07665011206888 819.9991966561747,166.74636933238105 825.6642897199787,165.79800268381624 828.2355747979162,166.33771822100027 831.2066239499808,171.4101739500594" fill="#850000" style="cursor: pointer; opacity: 1;"/><polygon points="802.2217783742396,267.07159468790337 800.627520749523,268.6750925932915 800.984760075915,272.31959279712135 795.7292305794417,273.5470293885399 792.512840431552,275.3942680618863 789.9273146927701,273.8564378430449 787.0427488075258,271.6744482478866 786.2217783742396,268.28016280381695 787.7651211833136,266.5683023584999 790.6035580905256,259.8340309819007 796.617851137866,259.86537717446333 801.9158936722563,264.3678020020707" fill="#850000" style="cursor: pointer; opacity: 1;"/><polygon points="815.2015023382608,323.21700195344425 814.5053605774574,327.2214548994818 811.1547032383102,331.5888258579225 808.6170284661854,331.43229466308946 806.0131975100431,330.2977930673154 802.7869445457909,327.83891922347067 799.2015023382608,323.14726000095743 802.9226339736751,316.8218644762742 808.1979150817103,317.2416472554411 812.6796059084106,317.3379815871923 814.9308799124196,321.4493767455462" fill="#850000" style="cursor: pointer; opacity: 1;"/><polygon points="831.6883141475969,369.847703624473 829.7419779670475,373.85665656141896 825.6334284654881,377.6782743083803 819.3366105620632,375.0433378023959 818.7722928138587,372.78650709917326 815.6883141475969,368.3445224848954 818.9925129954496,366.89542304385446 820.2399409531685,363.8391508643253 821.567173878104,361.94923304375294 826.4914716950786,364.15680112549745 830.3653069072162,368.22617950537744" fill="#850000" style="cursor: pointer; opacity: 1;"/><polygon points="829.3852427845333,61.497726275762034 827.778795968463,64.10528760428859 827.5093612673855,66.58856257982664 820.8377710557801,68.93798607786975 818.6484318090282,70.94321859393497 813.935025526599,68.39845179987974 813.801879121177,64.52384738363972 813.3852427845333,62.73721771334825 814.2571780426251,61.06274297069565 815.338352833346,56.67827751539244 817.6811692842936,53.303410985725975 822.7332231439667,52.257457233826095 826.1957553986499,58.14734758972361" fill="#850000" style="cursor: pointer; opacity: 1;"/><polygon points="822.5728028872858,304.6334612377327 822.8547500189605,308.60093687341174 818.281539685712,309.48659708396235 815.8989202819379,310.2746386246641 808.831999289233,310.0390066694941 807.370405328134,302.2114026612967 812.716253553898,299.64216200657023 816.0318723922312,298.8105841043641 819.1400714666207,299.0718841171512 823.370405328134,300.61155474004516" fill="#850000" style="cursor: pointer; opacity: 1;"/><polygon points="817.9507104814713,188.4808327382136 817.6833685047285,194.91139188426976 815.1031252376706,196.63977575806885 806.8932431210192,195.87509980035776 804.0680278200608,195.52315278536565 801.9507104814713,189.20661614789407 804.1095575004767,184.49356697029452 804.512629261255,181.58523433452385 810.8335222804666,181.261595591957 813.399553345334,180.74481721680934 817.1855093985472,185.0199787792351" fill="#850000" style="cursor: pointer; opacity: 1;"/><polygon points="838.421856027231,221.36677389708808 837.9293128057489,224.00792677127697 832.7910426054611,226.78601986122183 831.0672888791197,229.4709233617028 828.0521712351119,227.33820157757424 826.5171980485487,226.4063717448643 822.8872656040589,223.18454625044154 825.397467092907,221.06193611867783 825.6332413287106,219.10864324735437 827.1015646245929,216.49337238302616 833.2660535016121,213.57607891124755 835.4471610565881,217.32912388006304 838.8872656040589,219.48102360674676" fill="#850000" style="cursor: pointer; opacity: 1;"/><polygon points="818.188826075939,135.98201629841307 818.1375251236734,142.09615709122858 815.4044799502511,141.81772764151995 812.0434444139108,144.1996440659855 808.5920909880423,144.82924864874494 806.8422462208044,142.77397203843947 803.3016027103818,139.56714216599832 802.188826075939,134.4514800492366 806.2318579756429,131.69355172611256 808.23726694085,126.87405509031014 811.6544002453026,128.10756494770465 817.6320959719513,129.03410321759344 817.5387807988931,133.5320490702298" fill="#850000" style="cursor: pointer; opacity: 1;"/><polygon points="844.3859127387441,376.2672414156018 844.6191969353365,379.17174596497694 841.5764330472856,385.3289902684216 835.2276845731329,383.00635268457603 829.3272254845909,378.7432342575203 828.7964114834139,375.4256554566852 829.7502638031428,373.0830032913403 832.5654901724661,370.3795711387459 835.2373249522525,369.38487804743295 837.7799628363324,367.7391993473442 843.8888833613668,368.9538655430831 844.7964114834139,374.0558941780802" fill="#850000" style="cursor: pointer; opacity: 1;"/><polygon points="805.0512937833785,115.05788726785134 801.5398988474512,119.69717773446816 800.658520338231,122.17287055921155 794.7300747441808,121.21454866452488 791.1135957835606,119.4916794859974 789.0512937833785,113.5392501270162 792.839784764004,109.90362902583692 796.275225696048,106.70249487862267 798.4890710050724,106.70581929840239 804.2537443443601,112.41380332389538 803.448730359603,114.3174787049433" fill="#850000" style="cursor: pointer; opacity: 1;"/><polygon points="848.1826702397543,8.990681105489422 846.6099907071347,14.556309201006272 839.6121793645747,18.258933537902386 832.4648870039874,15.926770482754716 833.0963373072508,7.947776466812611 834.6778292532213,4.415162723862613 837.9285094956547,0.4398063534264045 841.0009371644379,1.5003162176033542 846.4368649017629,4.088501355325337 848.4648870039874,7.460113400573424" fill="#850000" style="cursor: pointer; opacity: 1;"/><polygon points="826.0946103200231,234.78616102904627 824.2839762203829,239.63250284924118 821.794574646875,240.2302921889693 819.1511919653998,241.63021179821385 815.0186991980448,242.8938342610335 812.8589594385144,240.18341695404604 810.0946103200231,232.94052875283205 813.2328269486593,232.0483862677526 814.7117162999248,228.29411748343963 818.232176329088,227.54567539877618 821.9154625716569,226.8343329208744 823.4437519538205,230.54844286275306" fill="#850000" style="cursor: pointer; opacity: 1;"/><polygon points="809.0670469741611,288.5159215516299 805.953778901621,293.8543832372768 803.6357603932072,298.43199553851133 796.9515222379675,296.43790458766165 793.0670469741611,290.17403574690974 794.6227707396836,283.00250444851383 795.6186175545481,280.7793712990353 799.6215652799522,278.9528204988498 807.8325804603454,282.49740170353516" fill="#850000" style="cursor: pointer; opacity: 1;"/><polygon points="804.3237439050772,120.15629493135474 801.5408618616488,127.59421795867672 793.5236584758686,128.95786183637037 790.7397957460415,125.39935267749082 788.3237439050772,119.73036126706785 790.963235521099,114.18947440388217 796.3542677323622,114.20733425518392 801.3760388016618,115.39835962967874" fill="#850000" style="cursor: pointer; opacity: 1;"/><polygon points="827.3266910260005,164.48040627501234 822.6832170500152,170.81141458307852 820.668948638856,172.08834483695503 818.0231455231058,171.93437287867664 815.8391279782795,170.5107221221416 811.6857256545842,168.86339331899774 811.3266910260005,165.25630193262597 812.0324529694495,160.50937451994847 817.2549193660658,158.2886776572811 820.2642373542533,157.1625452531931 823.1134415719596,158.4674233583196 824.6818001275949,161.16411518794112" fill="#850000" style="cursor: pointer; opacity: 1;"/><circle r="54" cx="713.3073530197144" cy="206.5" style="cursor: pointer; opacity: 1;" fill="#827694"/><polygon points="590.3690955825258,138.4812956325186 588.1582989915971,141.35279859356822 587.194444056968,142.49701948647038 583.9606316172201,142.0522930643706 581.0690955825258,139.74442021555035 582.9275045806218,136.2185961498299 584.458660046311,134.38847435877386 587.7417856709644,135.9607383254439 588.5917747378612,137.335381022368" style="cursor: pointer; opacity: 1;"/><polygon points="581.7768776868755,62.156928686563106 580.8176862104172,64.87870506099621 577.1558261365474,66.15786409580285 574.9249642236787,65.44010979571549 573.7398971056515,62.979488096042196 572.4768776868756,60.4728582177072 576.0973474224095,58.58359668795635 579.1269554399233,57.60358830582861 581.2979167796183,60.81416213370615" style="cursor: pointer; opacity: 1;"/><polygon points="602.0296208302746,354.04999833169217 599.7113586651755,356.40535548227587 599.5093614809065,357.7248333622746 596.5506878704947,358.3794084609357 594.9023600356396,358.2338502770729 594.3882206740931,356.94853302687955 592.9933580838575,353.91530276117663 592.7296208302746,352.74863596232547 595.9408474875135,350.9360395291623 596.7554364898167,350.6946025660592 597.8118320405358,350.0798426054145 600.4943089254497,351.86463809690713 600.6125920880357,352.72833030853207" style="cursor: pointer; opacity: 1;"/><polygon points="592.6287355205849,274.0423353244587 592.5118005199971,276.0706550074071 591.5904650306279,277.11281730859105 589.2698819439635,278.0504635452799 587.6118786174394,279.46452899232605 585.4701533282712,277.9904416908393 583.3287355205849,277.15363948947527 583.531915798434,272.6855553844739 584.8388627108916,271.0756718051689 588.0002902024677,268.52759190408835 588.7178064296528,270.35724925897756 591.2323000017324,270.47448778392715 591.2713213090061,272.46083494530853" style="cursor: pointer; opacity: 1;"/><polygon points="592.5712542515955,357.55521113434577 593.7123967335756,359.39739884889883 592.2586467935853,361.3590841174907 589.162277043948,362.59929954162146 586.8298418608586,361.10138666235616 584.904091248586,362.26529096273424 584.4123967335756,357.18962224320654 584.4554423799815,353.37140370539686 589.0919354000742,353.08195241904934 591.9121574344965,354.95443355162917" style="cursor: pointer; opacity: 1;"/><polygon points="624.0006743801645,44.96748502612844 622.8328753005813,48.59557424930372 621.1484043545604,49.087810990448624 618.2709140122078,49.25486692134084 616.7301720658617,48.2803495319535 616.1156631723504,47.29084236987433 615.233829535388,45.29920236455434 615.2773090181133,43.55512014597352 618.3687956534916,40.461526782217035 619.7044930878887,40.37367261677076 624.533829535388,41.31563266243893 623.7231303061141,43.58906539835837" style="cursor: pointer; opacity: 1;"/><polygon points="612.7546764688734,146.18148406400232 611.8927868474257,149.39812912010444 610.1472274305887,150.26889274759094 607.5901377837299,150.6296670488799 604.7180601075354,148.26396669551542 603.4546764688735,147.6217239456425 603.788472323885,145.98190547764847 604.2789268786096,144.61474610067012 605.659717387706,142.51480621749033 607.9407514872287,142.47871691551987 609.8059046283895,142.8138445596286 611.2059757454873,144.9952084529406" style="cursor: pointer; opacity: 1;"/><polygon points="591.9302901720299,223.7647551667836 591.0521731614219,227.7381200018895 589.1181609547996,227.77562271818084 588.097055086418,229.39679313220853 586.6398537045982,228.5022457395525 586.1220761578211,227.12276288609428 583.6071920097684,224.57757603015878 584.9195665681423,222.31552002454006 585.6298703129609,221.17405052136155 587.1150835343931,218.51768520222782 588.7894149951488,219.21130111939246 591.1820415408993,220.81268044473663 592.9071920097683,222.79872193764044" style="cursor: pointer; opacity: 1;"/><polygon points="615.8258350425338,115.57752267654637 613.9054117204339,118.68843705110187 610.9285117975618,119.90444245672305 608.6260867010686,117.73305700888665 606.5258350425338,115.42989543808382 607.2864209966505,112.9812476011762 610.6187125227901,112.14673602124466 612.2094466137731,111.06226670142905 615.1544599612374,112.92053225890167" style="cursor: pointer; opacity: 1;"/><polygon points="627.4643444395763,205.14512417158693 627.0776902215122,206.72582437807074 624.6334423144056,210.2929609750902 622.9824614570367,208.72754170500923 619.4632650936938,208.844627678243 618.1643444395763,206.31361430030447 619.1766335542477,202.20318759179696 621.0581531496164,201.6918869823072 624.3648122473371,200.60421686198777 625.917930931874,203.10092682637455" style="cursor: pointer; opacity: 1;"/><polygon points="589.8205444794858,172.49601266412267 587.8392342215521,173.78777343781042 586.4104186087866,175.9660802114136 585.01875225273,176.24074624634986 583.1289112917101,176.0712098925896 581.4763596207478,174.85678223738742 580.5205444794858,171.3749053751653 581.6123909908513,170.46278305989117 583.1463393165434,169.4257456564621 584.1440513079148,168.16923298280807 587.6394189356822,168.3078023685906 589.172247067632,170.24439095755488" style="cursor: pointer; opacity: 1;"/><polygon points="620.7212174437759,414.32712816903023 620.7968293643909,416.2642097685852 618.1131139107425,417.8923536629646 616.2174429365426,418.3674594409902 612.5488327847734,418.31004687454686 612.2598186151894,414.27583345384545 611.4968293643909,411.71641408012516 614.0334841036974,409.42811639827084 617.6117774273678,409.94499487740876 618.4466465206636,411.1720749255962 619.9149453959067,414.05699962618036" style="cursor: pointer; opacity: 1;"/><polygon points="583.2868644190108,86.79694374087579 583.6193125533233,88.0397961114267 581.5412146195251,90.51625622485669 578.284311638438,91.18710664849128 576.7005435349072,88.81409282224155 574.6092453374042,85.17228156844568 576.6004764250629,84.1093614799856 578.4974164490214,82.95219900327328 582.4861827869986,83.4960568961758 583.9092453374042,86.7291498260814" style="cursor: pointer; opacity: 1;"/></svg>